<svg width="244" height="88" viewBox="0 0 244 88" fill="none" xmlns="http://www.w3.org/2000/svg">
<path d="M210.936 54.5151C212.798 55.5261 214.912 56 217.247 56C219.581 56 221.664 55.5261 223.525 54.5151C225.387 53.5357 226.838 52.1772 227.911 50.408C228.984 48.6703 229.52 46.7115 229.52 44.5C229.52 42.3201 228.984 40.3613 227.911 38.592C226.838 36.8544 225.387 35.4959 223.525 34.4849C221.664 33.5055 219.581 33 217.247 33C214.912 33 212.798 33.5055 210.936 34.4849C209.075 35.4959 207.623 36.8544 206.551 38.592C205.478 40.3613 204.973 42.3201 204.973 44.5C204.973 46.7115 205.478 48.6703 206.551 50.408C207.623 52.1772 209.075 53.5357 210.936 54.5151V54.5151ZM220.276 50.0288C219.361 50.5659 218.351 50.8187 217.247 50.8187C216.111 50.8187 215.101 50.5659 214.218 50.0288C213.303 49.5234 212.577 48.7651 212.072 47.8173C211.536 46.8695 211.283 45.7637 211.283 44.5C211.283 43.2679 211.536 42.1621 212.072 41.2143C212.577 40.2665 213.303 39.5082 214.218 38.9712C215.101 38.4657 216.111 38.1813 217.247 38.1813C218.351 38.1813 219.361 38.4657 220.276 38.9712C221.159 39.5082 221.885 40.2665 222.421 41.2143C222.926 42.1621 223.21 43.2679 223.21 44.5C223.21 45.7637 222.926 46.8695 222.421 47.8173C221.885 48.7651 221.159 49.5234 220.276 50.0288V50.0288Z" fill="black"/>
<path d="M195.386 33.4423V55.5576H201.634V33.4423H195.386Z" fill="black"/>
<path d="M190.554 38.6552C189.513 37.0123 188.061 35.717 186.2 34.8008C184.307 33.9162 182.161 33.4423 179.763 33.4423H169.32V38.434H179.511C181.404 38.434 182.918 38.9711 184.054 40.0453C185.19 41.1511 185.789 42.6359 185.789 44.5C185.789 46.3956 185.19 47.8804 184.054 48.9546C182.918 50.0288 181.404 50.5659 179.511 50.5659H175.567V44.6895H169.32V55.5576H179.763C182.161 55.5576 184.307 55.1153 186.2 54.1991C188.061 53.3145 189.513 52.0192 190.554 50.3447C191.563 48.7019 192.1 46.7431 192.1 44.5C192.1 42.2884 191.563 40.3296 190.554 38.6552Z" fill="black"/>
<path d="M147.071 53.3145C148.901 55.1153 151.457 56 154.738 56C158.019 56 160.543 55.1153 162.373 53.3145C164.203 51.5453 165.118 48.9862 165.118 45.7005V33.4423H158.966V45.5109C158.966 49.0494 157.577 50.8186 154.801 50.8186C151.993 50.8186 150.605 49.0494 150.605 45.5109V33.4423H144.357V45.7005C144.357 48.9862 145.241 51.5453 147.071 53.3145V53.3145Z" fill="black"/>
<path d="M129.59 38.4024V55.5576H135.837V38.4024H142.589V33.4423H122.806V38.4024H129.59Z" fill="black"/>
<path d="M107.355 55.3365C109.027 55.7788 110.762 56 112.561 56C114.643 56 116.442 55.6841 117.925 55.0522C119.376 54.4203 120.48 53.5357 121.238 52.4615C121.963 51.3874 122.342 50.1868 122.342 48.8599C122.342 47.3434 121.932 46.1113 121.111 45.2266C120.291 44.342 119.344 43.6786 118.24 43.2679C117.136 42.8571 115.748 42.478 114.075 42.0989C112.561 41.783 111.488 41.4986 110.826 41.1827C110.131 40.8984 109.816 40.456 109.816 39.8558C109.816 39.2871 110.1 38.8132 110.668 38.4341C111.236 38.0549 112.119 37.8654 113.381 37.8654C115.337 37.8654 117.388 38.4341 119.502 39.5714L121.427 34.9272C120.354 34.2953 119.092 33.8214 117.704 33.5055C116.284 33.1896 114.864 33 113.413 33C111.267 33 109.469 33.3159 108.017 33.9478C106.566 34.5797 105.462 35.4643 104.736 36.5385C103.979 37.6126 103.632 38.8448 103.632 40.1717C103.632 41.7198 104.01 42.9519 104.831 43.8365C105.62 44.7527 106.566 45.4162 107.702 45.8269C108.806 46.2376 110.194 46.6168 111.867 46.9643C113.381 47.3118 114.454 47.6277 115.148 47.9437C115.842 48.2596 116.189 48.7019 116.189 49.3338C116.189 50.5343 114.99 51.1346 112.592 51.1346C111.33 51.1346 110.037 50.9451 108.743 50.5343C107.418 50.1552 106.282 49.6181 105.304 48.9547L103.253 53.5673C104.294 54.3256 105.651 54.8942 107.355 55.3365V55.3365Z" fill="black"/>
<path d="M82.9434 54.5151C84.805 55.5261 86.9189 56 89.2537 56C91.5885 56 93.6709 55.5261 95.5325 54.5151C97.394 53.5357 98.8454 52.1772 99.9181 50.408C100.991 48.6703 101.527 46.7115 101.527 44.5C101.527 42.3201 100.991 40.3613 99.9181 38.592C98.8454 36.8544 97.394 35.4959 95.5325 34.4849C93.6709 33.5055 91.5885 33 89.2537 33C86.9189 33 84.805 33.5055 82.9434 34.4849C81.0819 35.4959 79.6305 36.8544 78.5578 38.592C77.4851 40.3613 76.9802 42.3201 76.9802 44.5C76.9802 46.7115 77.4851 48.6703 78.5578 50.408C79.6305 52.1772 81.0819 53.5357 82.9434 54.5151V54.5151ZM92.2827 50.0288C91.3677 50.5659 90.358 50.8187 89.2537 50.8187C88.1179 50.8187 87.1082 50.5659 86.2248 50.0288C85.3098 49.5234 84.5841 48.7651 84.0793 47.8173C83.5429 46.8695 83.2905 45.7637 83.2905 44.5C83.2905 43.2679 83.5429 42.1621 84.0793 41.2143C84.5841 40.2665 85.3098 39.5082 86.2248 38.9712C87.1082 38.4657 88.1179 38.1813 89.2537 38.1813C90.358 38.1813 91.3677 38.4657 92.2827 38.9712C93.1661 39.5082 93.8918 40.2665 94.4282 41.2143C94.933 42.1621 95.2169 43.2679 95.2169 44.5C95.2169 45.7637 94.933 46.8695 94.4282 47.8173C93.8918 48.7651 93.1661 49.5234 92.2827 50.0288V50.0288Z" fill="black"/>
<path d="M68.9959 47.6277L77.4517 33.4423H71.3938L66.1563 42.2252L60.9187 33.4423H54.3245L62.7487 47.5329V55.5576H68.9959V47.6277Z" fill="black"/>
<path d="M53.924 33.4423H50.0747L45.7522 38.4024L34.6145 51.6401V55.5576H38.306L42.7863 50.5975L53.924 37.3598V33.4423ZM43.9853 33.4423H34.8985V38.4024H39.505L43.9853 33.4423ZM48.8758 50.5975L44.5217 55.5576H54.3973V50.5975H48.8758Z" fill="black"/>
<path d="M32.0313 33.4423H14.5203V38.2761H32.0313V33.4423ZM32.0313 42.0041H14.5203V46.6799H32.0313V42.0041ZM14.5203 50.7239V55.5576H32.0313V50.7239H14.5203Z" fill="black"/>
</svg>
